<?xml version="1.0" standalone="no"?>
<!DOCTYPE svg PUBLIC "-//W3C//DTD SVG 20010904//EN"
 "http://www.w3.org/TR/2001/REC-SVG-20010904/DTD/svg10.dtd">
<svg version="1.0" xmlns="http://www.w3.org/2000/svg"
 width="565.000000pt" height="442.000000pt" viewBox="0 0 565.000000 442.000000"
 preserveAspectRatio="xMidYMid meet">

<g transform="translate(0.000000,442.000000) scale(0.100000,-0.100000)"
fill="#000000" stroke="none">
<path d="M3689 4008 c-20 -18 -40 -40 -45 -48 -5 -9 -22 -21 -38 -28 -24 -11
-28 -17 -23 -41 10 -48 -11 -55 -86 -31 -42 14 -94 21 -148 22 -110 2 -327 -7
-359 -15 -14 -3 -71 -8 -128 -11 -56 -3 -110 -10 -120 -16 -15 -10 -14 -11 5
-7 13 3 24 -1 27 -9 3 -8 12 -14 20 -14 10 0 13 -6 9 -16 -4 -10 -14 -14 -29
-11 -28 5 -30 -1 -8 -31 13 -20 12 -26 -7 -24 -3 1 -4 -10 -1 -24 4 -20 1 -23
-13 -18 -15 6 -16 5 -3 -15 9 -15 20 -21 36 -18 12 2 22 0 22 -4 0 -5 -5 -9
-11 -9 -5 0 -7 -5 -3 -12 5 -8 13 -4 25 11 12 14 27 21 41 19 31 -4 47 28 44
92 -2 36 -9 55 -22 65 -10 8 -14 15 -7 15 6 0 20 -11 31 -25 19 -24 20 -24 25
-5 3 11 1 18 -4 14 -5 -3 -9 0 -9 5 0 6 0 14 0 18 0 12 88 14 96 2 3 -6 2 -14
-4 -18 -6 -4 -9 -17 -5 -29 3 -12 9 -19 15 -16 13 8 -1 -47 -21 -76 -13 -20
-15 -40 -10 -95 3 -38 6 -66 7 -61 1 4 11 -2 23 -15 l21 -24 -17 28 c-9 16
-14 34 -12 40 2 7 10 -1 17 -16 10 -20 16 -24 22 -15 6 9 8 2 6 -18 -3 -23 -1
-31 9 -27 7 3 13 17 13 32 0 14 5 33 11 41 8 11 9 9 3 -10 -6 -22 -5 -23 10
-11 9 7 16 20 16 29 0 13 3 12 20 -3 11 -10 20 -14 20 -9 0 5 4 3 8 -4 6 -8
13 -1 22 23 10 26 18 34 34 31 17 -2 21 -9 18 -37 l-2 -34 13 29 c8 18 21 30
35 31 17 1 19 -1 10 -12 -8 -10 -8 -17 0 -25 9 -9 12 -8 12 6 0 10 4 14 12 10
8 -5 9 -2 5 10 -4 10 -3 15 3 11 5 -3 14 12 20 33 9 36 13 39 38 34 15 -2 35
-13 44 -22 14 -15 14 -20 2 -34 -8 -9 -4 -7 8 3 l21 20 -24 20 c-13 11 -34 20
-46 21 -12 0 -25 5 -29 12 -5 8 -10 6 -16 -8 -8 -18 -8 -18 -5 1 2 21 27 28
39 10 5 -6 11 -6 20 3 8 8 8 12 1 12 -16 0 -23 38 -9 49 9 7 19 5 35 -6 22
-15 23 -15 18 3 -6 20 5 39 38 64 20 15 20 15 1 -15 -11 -16 -20 -43 -21 -60
0 -16 -5 -36 -9 -44 -13 -20 25 2 47 28 25 31 21 38 -8 11 -28 -26 -30 -24
-15 16 6 15 13 24 17 21 3 -4 12 1 19 11 9 11 13 13 14 4 0 -7 3 -11 8 -9 8 5
26 -13 29 -30 2 -7 -6 -15 -17 -18 -11 -4 -17 -12 -13 -21 7 -19 23 -18 23 1
0 8 7 15 16 15 12 0 14 -3 6 -12 -7 -9 -6 -17 4 -25 10 -10 15 -10 21 1 4 8
25 18 46 24 21 6 35 6 32 1 -4 -5 1 -9 11 -9 13 0 14 -3 5 -14 -9 -11 -9 -16
0 -22 7 -4 9 -3 6 3 -4 6 0 14 9 17 8 3 12 2 9 -4 -3 -6 -1 -10 4 -10 6 0 11
-5 11 -11 0 -5 -4 -7 -10 -4 -5 3 -10 1 -10 -4 0 -6 7 -11 15 -11 18 0 20 -16
3 -24 -9 -4 -8 -5 2 -5 37 3 45 -2 25 -13 -25 -15 -56 -18 -48 -5 3 5 -8 7
-28 3 -31 -6 -32 -5 -9 5 24 10 24 11 7 24 -13 10 -15 14 -5 18 8 4 7 6 -4 6
-10 1 -18 -6 -18 -14 0 -8 -5 -15 -11 -15 -5 0 -7 5 -4 10 3 6 -4 10 -17 11
-23 0 -23 0 -2 9 24 10 40 40 21 40 -23 0 -56 -30 -51 -45 4 -8 1 -15 -5 -15
-6 0 -11 4 -11 8 0 5 -6 16 -13 26 -11 15 -18 16 -34 7 -22 -11 -49 -71 -32
-71 5 0 9 6 9 14 0 11 5 12 24 3 13 -7 22 -15 20 -19 -3 -5 5 -8 18 -8 13 0
30 -5 38 -10 12 -8 11 -11 -8 -16 -13 -4 -19 -10 -13 -13 6 -4 3 -11 -9 -19
-16 -10 -18 -9 -14 3 5 11 2 13 -10 9 -8 -3 -14 -11 -13 -17 1 -7 -4 -11 -11
-9 -8 1 -11 -2 -7 -8 3 -6 11 -8 16 -4 5 3 23 2 40 -1 22 -5 28 -10 20 -18 -7
-7 -15 -6 -26 3 -11 9 -19 9 -28 2 -7 -6 -18 -7 -26 -2 -9 5 -21 1 -34 -11
-19 -18 -43 -17 -32 2 3 5 -1 6 -9 3 -13 -5 -11 -10 9 -26 14 -11 25 -30 25
-43 0 -22 2 -24 28 -15 26 10 26 9 7 -5 -11 -9 -20 -22 -20 -30 0 -7 -12 -26
-26 -42 -14 -16 -24 -34 -21 -41 2 -7 -6 -12 -22 -12 -22 0 -26 -4 -26 -29 0
-16 7 -36 15 -45 8 -8 15 -21 15 -28 0 -10 -3 -9 -10 2 -7 12 -11 7 -17 -20
-6 -33 -7 -34 -14 -10 -5 20 -7 15 -8 -20 0 -28 2 -40 8 -32 6 10 10 9 14 -7
3 -13 1 -19 -6 -14 -6 4 -8 -2 -4 -18 l6 -23 -22 24 c-12 14 -19 21 -14 16 12
-17 8 -46 -8 -46 -14 0 -14 -4 0 -37 13 -33 13 -36 0 -19 -8 11 -15 24 -15 29
0 4 -7 1 -16 -7 -10 -10 -13 -24 -9 -38 6 -21 4 -20 -20 6 -14 15 -29 25 -33
21 -4 -3 1 -11 10 -16 13 -7 15 -15 8 -33 -5 -13 -7 -26 -4 -29 3 -2 9 -18 14
-35 6 -23 5 -31 -3 -29 -16 3 -8 -76 9 -92 4 -3 5 1 2 10 -4 9 -1 16 7 16 7 0
11 -7 8 -14 -3 -8 3 -23 13 -34 16 -18 16 -19 1 -13 -9 3 -17 11 -17 18 0 6
-7 2 -16 -9 -8 -11 -17 -19 -20 -17 -3 2 -9 0 -12 -4 -4 -4 -1 -4 6 0 6 4 12
2 12 -4 0 -6 5 -8 11 -4 8 5 8 1 0 -14 -17 -32 -13 -35 16 -12 16 13 29 17 31
11 2 -6 9 -9 15 -5 7 3 3 -2 -7 -10 -13 -10 -22 -12 -26 -6 -4 6 -14 2 -25
-10 -14 -15 -15 -20 -4 -20 10 0 11 -2 2 -8 -6 -4 -13 -19 -15 -34 -4 -31 -18
-50 -18 -25 0 19 -15 23 -25 6 -4 -6 1 -16 11 -24 18 -13 18 -14 2 -20 -10 -4
-18 -15 -18 -24 0 -13 2 -13 9 -2 7 10 13 11 27 2 19 -10 19 -10 0 -11 -15 0
-16 -2 -6 -15 9 -11 16 -13 24 -5 5 5 19 10 30 9 12 0 15 -3 9 -6 -25 -9 -13
-23 15 -17 26 6 26 6 7 -9 l-20 -16 20 -1 c14 0 16 -3 8 -8 -10 -6 -10 -12 2
-28 14 -18 16 -18 26 -1 5 9 15 17 22 17 7 0 6 -4 -3 -10 -8 -5 -10 -10 -5
-10 6 0 -1 -7 -15 -15 -14 -8 -19 -14 -12 -15 7 0 11 -4 8 -8 -7 -11 26 -29
47 -26 14 2 16 -2 11 -18 -5 -16 -3 -20 9 -15 21 8 29 -3 15 -20 -6 -8 -7 -13
-2 -11 13 4 55 -27 48 -35 -10 -10 39 -57 59 -57 13 0 17 -5 13 -18 -4 -10 4
-29 19 -46 13 -15 29 -44 36 -63 11 -35 12 -35 57 -29 24 3 51 6 58 6 19 0 18
25 -1 40 -9 7 -13 15 -10 18 3 3 -1 12 -8 20 -9 13 -9 14 0 8 10 -5 11 1 7 23
-4 17 -2 43 4 60 6 16 7 32 4 36 -4 4 -7 16 -8 28 -2 40 -16 67 -35 67 -10 0
-20 4 -23 8 -3 5 9 7 27 4 18 -2 27 0 21 5 -6 4 -11 22 -10 39 1 19 -3 30 -10
27 -6 -2 -11 3 -11 11 0 8 5 14 11 13 17 -3 34 -22 28 -31 -3 -5 0 -6 5 -3 6
4 9 26 7 49 -3 28 -1 36 4 24 8 -17 9 -17 25 -2 9 10 17 27 17 38 0 11 14 33
30 48 17 16 31 31 30 34 -1 21 2 25 17 19 15 -6 16 -5 3 9 -8 8 -22 13 -30 11
-9 -3 -7 2 5 12 18 14 20 14 23 1 4 -20 9 -20 28 -2 18 19 18 26 -3 43 -16 12
-15 13 12 6 26 -5 28 -4 17 9 -10 13 -10 17 3 22 9 3 15 0 15 -9 0 -8 18 -33
40 -55 22 -22 40 -37 40 -32 0 4 -5 13 -11 19 -7 7 -5 23 7 53 15 38 16 53 6
130 -7 48 -12 117 -12 153 0 56 3 68 20 77 11 6 20 20 20 31 0 14 6 19 16 17
19 -3 22 -8 59 -98 43 -104 78 -169 106 -196 23 -22 30 -24 48 -15 12 7 21 16
21 21 0 5 37 48 82 97 151 163 263 336 287 443 5 25 13 83 17 130 l6 85 -43
31 c-24 17 -55 35 -69 39 -24 7 -102 48 -165 87 -16 10 -37 21 -45 24 -8 4
-39 17 -69 30 -29 13 -58 24 -63 24 -6 0 -22 8 -36 18 -34 24 -126 59 -174 68
-21 3 -42 12 -49 20 -6 8 -17 14 -23 14 -6 0 -29 18 -51 40 -36 35 -124 80
-158 80 -7 0 -29 -15 -48 -32z m221 -97 c0 -5 11 -19 25 -32 22 -22 33 -49 19
-49 -9 0 -34 28 -34 38 0 5 -7 15 -15 22 -17 14 -20 30 -5 30 6 0 10 -4 10 -9z
m-274 -73 c1 -11 -3 -15 -12 -11 -8 3 -14 0 -14 -6 0 -6 -4 -11 -8 -11 -5 0
-9 7 -9 15 0 8 4 12 9 9 4 -3 8 2 8 11 0 21 22 14 26 -7z m28 -13 c-4 -8 -8
-15 -10 -15 -2 0 -4 7 -4 15 0 8 4 15 10 15 5 0 7 -7 4 -15z m251 -25 c-3 -5
1 -10 9 -10 23 0 27 -15 10 -36 -14 -17 -15 -17 -10 -1 3 10 0 17 -7 17 -7 0
-13 9 -14 20 -1 11 3 20 8 20 6 0 7 -4 4 -10z m88 -63 c15 -15 17 -22 8 -25
-19 -6 -44 23 -47 55 -3 24 -1 25 8 9 5 -10 20 -28 31 -39z m-383 12 c11 -8
12 -12 3 -16 -16 -6 -23 -5 -22 3 0 4 -5 11 -13 15 -10 7 -10 9 2 9 8 0 22 -5
30 -11z m-300 -44 c-19 -20 -25 -22 -36 -10 -18 18 -18 31 0 16 11 -9 18 -8
30 4 9 9 16 22 17 28 0 8 2 7 6 -1 3 -7 -5 -24 -17 -37z m-213 -7 c-3 -8 -6
-5 -6 6 -1 11 2 17 5 13 3 -3 4 -12 1 -19z m884 -28 c5 0 9 7 9 15 0 23 17 18
25 -7 12 -39 13 -179 1 -175 -6 2 -10 12 -8 22 2 10 -1 14 -7 10 -6 -3 -11 -1
-11 4 0 6 5 11 11 11 6 0 9 18 7 48 -3 42 -6 47 -26 44 -20 -3 -22 1 -21 35 1
23 3 29 6 16 2 -13 9 -23 14 -23z m-730 -4 c5 3 9 -4 9 -15 0 -11 -5 -23 -11
-27 -17 -10 -29 9 -22 36 4 13 8 19 11 12 2 -7 8 -10 13 -6z m269 -11 c11 -13
10 -14 -4 -9 -9 3 -16 10 -16 15 0 13 6 11 20 -6z m-210 -15 c0 -5 -5 -10 -11
-10 -5 0 -7 5 -4 10 3 6 8 10 11 10 2 0 4 -4 4 -10z m292 -18 c-7 -2 -9 -8 -6
-14 4 -5 -4 -5 -16 2 -17 9 -19 14 -10 20 7 5 20 5 29 2 10 -4 11 -7 3 -10z
m154 -51 c0 -12 -6 -17 -18 -13 -21 5 -24 18 -5 25 20 9 23 8 23 -12z m-161
-40 c-8 -13 -35 -15 -35 -2 0 5 8 11 18 13 21 5 26 2 17 -11z m52 13 c-3 -3
-12 -4 -19 -1 -8 3 -5 6 6 6 11 1 17 -2 13 -5z m-97 -62 c0 -10 -38 -13 -44
-3 -3 3 6 8 20 9 13 1 24 -2 24 -6z m-67 -17 c-3 -9 -8 -14 -10 -11 -3 3 -2 9
2 15 9 16 15 13 8 -4z m44 -19 c-7 -7 -23 -17 -36 -21 -21 -6 -21 -6 -6 12 9
10 25 19 36 20 16 2 17 -1 6 -11z m-17 -66 c0 -5 -5 -10 -11 -10 -5 0 -7 5 -4
10 3 6 8 10 11 10 2 0 4 -4 4 -10z m505 1 c3 -5 1 -12 -5 -16 -5 -3 -10 1 -10
9 0 18 6 21 15 7z m-315 -151 c0 -5 -9 -10 -20 -10 -11 0 -20 5 -20 10 0 6 9
10 20 10 11 0 20 -4 20 -10z m-5 -30 c-3 -5 -16 -15 -28 -21 l-22 -12 20 21
c21 22 41 30 30 12z m-72 -35 c-3 -9 -8 -14 -10 -11 -3 3 -2 9 2 15 9 16 15
13 8 -4z m72 -175 c0 -13 -5 -25 -12 -27 -13 -5 -27 32 -18 47 11 18 30 5 30
-20z m-135 -15 c0 -8 -4 -15 -10 -15 -5 0 -10 7 -10 15 0 8 5 15 10 15 6 0 10
-7 10 -15z m-230 -345 c0 -5 -5 -10 -11 -10 -5 0 -7 5 -4 10 3 6 8 10 11 10 2
0 4 -4 4 -10z m60 -290 c0 -5 -2 -10 -4 -10 -3 0 -8 5 -11 10 -3 6 -1 10 4 10
6 0 11 -4 11 -10z"/>
<path d="M2092 3800 c-68 -27 -134 -50 -147 -50 -24 0 -115 -44 -192 -93 -24
-15 -45 -27 -48 -27 -3 0 -52 -29 -108 -64 -57 -36 -123 -72 -147 -82 -25 -10
-48 -22 -51 -26 -3 -5 -28 -23 -55 -41 -80 -52 -80 -57 -6 -277 29 -86 108
-229 101 -182 -4 21 2 42 11 42 7 0 8 -7 3 -17 -20 -42 5 -90 37 -73 16 8 19
5 25 -20 4 -16 15 -32 26 -35 10 -4 19 -12 19 -19 0 -12 28 -45 64 -74 9 -7
14 -17 11 -23 -4 -5 -1 -9 5 -9 6 0 8 -5 4 -12 -4 -6 -3 -8 3 -5 5 3 22 -8 39
-26 16 -17 23 -27 15 -22 -20 12 -2 -16 21 -33 10 -7 18 -21 19 -30 0 -14 2
-13 9 3 8 21 8 21 25 -31 3 -10 11 -14 21 -10 13 5 15 1 12 -19 -3 -13 -2 -22
3 -20 4 3 9 0 11 -6 2 -7 11 -7 30 1 43 20 115 145 133 230 4 19 16 67 27 106
17 61 23 71 39 67 35 -10 63 -88 67 -191 3 -77 7 -93 19 -90 9 2 17 14 19 28
19 133 20 135 35 132 9 -1 29 5 45 13 34 17 48 19 39 5 -3 -5 -2 -10 3 -10 12
0 34 -49 27 -60 -3 -5 4 -12 16 -15 14 -5 19 -13 16 -25 -3 -13 0 -16 14 -13
14 4 17 0 14 -16 -2 -13 1 -21 9 -21 8 0 20 -9 27 -20 8 -11 26 -21 42 -22 26
-2 39 -27 15 -29 -7 -1 3 -5 22 -8 25 -5 38 -3 47 8 7 8 16 11 20 7 5 -4 -1
-15 -12 -24 -12 -10 -24 -26 -28 -37 -7 -20 -7 -20 8 -1 14 18 15 18 15 2 0
-9 4 -14 10 -11 6 3 7 -1 4 -9 -8 -21 5 -20 28 1 17 15 18 15 18 -3 0 -17 2
-16 16 4 8 12 21 22 29 22 8 0 19 8 24 19 10 19 49 32 109 37 34 3 40 -4 20
-25 -7 -7 -8 -12 -3 -11 28 6 56 -1 49 -12 -4 -7 -3 -8 5 -4 8 6 9 12 2 20 -6
7 -7 17 -3 21 4 5 -1 6 -10 2 -9 -3 -19 0 -21 8 -7 16 1 25 22 25 9 0 22 14
29 30 8 17 20 30 27 30 8 0 17 5 21 12 5 7 3 8 -5 3 -9 -5 -9 -2 1 14 7 11 19
23 26 26 7 2 11 1 8 -4 -3 -5 0 -11 8 -14 14 -6 16 16 3 29 -4 4 -7 14 -7 22
0 11 3 12 14 3 11 -9 15 -8 20 5 4 9 4 19 1 22 -3 3 -5 -1 -5 -8 0 -7 -3 -10
-7 -6 -5 4 -8 28 -8 52 0 24 3 44 8 44 4 0 7 15 6 33 -1 30 -1 31 -9 7 -5 -17
-8 -19 -9 -7 -1 9 -5 17 -10 17 -13 0 -20 35 -10 51 5 10 2 15 -11 15 -11 0
-16 -5 -12 -15 4 -10 1 -13 -10 -9 -9 4 -19 3 -24 -2 -5 -5 -9 1 -9 15 0 12 3
21 6 19 12 -7 18 23 6 35 -7 7 -8 14 -1 21 7 7 15 2 24 -15 18 -34 27 -31 27
8 0 17 -2 24 -4 15 -3 -10 -9 -18 -14 -18 -5 0 -6 12 -3 26 5 19 4 25 -5 20
-6 -4 -11 -1 -11 8 0 9 -4 16 -8 16 -15 0 -52 -46 -45 -56 5 -5 -2 0 -15 10
-27 23 -37 16 -28 -19 6 -22 9 -24 26 -15 14 8 20 8 20 0 0 -6 -7 -13 -15 -16
-8 -4 -15 -10 -15 -16 0 -5 5 -6 10 -3 6 3 10 1 10 -5 0 -6 5 -8 11 -4 7 4 7
-2 -1 -17 -18 -34 -24 -38 -17 -11 4 19 1 24 -24 29 -32 6 -35 13 -17 31 9 9
9 12 -1 12 -9 0 -11 9 -6 30 8 37 -2 73 -18 64 -9 -5 -9 -4 0 6 6 7 9 19 6 26
-3 8 0 14 6 14 6 0 11 5 11 12 0 6 -3 8 -7 4 -4 -3 -13 4 -20 16 -7 13 -12 17
-13 10 0 -7 -5 -10 -11 -6 -6 3 -15 1 -19 -6 -5 -9 -12 -7 -26 8 -13 14 -31
20 -56 19 -21 0 -38 -4 -38 -9 0 -4 -13 -5 -28 -2 -19 4 -32 1 -42 -11 -11
-14 -10 -17 8 -22 12 -3 22 -12 22 -20 0 -8 -4 -11 -10 -8 -15 9 -12 -2 5 -19
14 -13 13 -15 -2 -15 -45 -1 -55 -6 -71 -33 -9 -15 -23 -29 -32 -29 -8 -1 -1
-5 15 -9 l30 -8 -27 -1 c-19 -1 -28 -6 -28 -17 0 -10 -5 -14 -16 -10 -8 3 -12
2 -9 -4 3 -6 2 -10 -4 -10 -13 0 -98 -57 -107 -72 -5 -7 -2 -8 7 -3 7 5 3 -4
-10 -20 -23 -30 -26 -32 -70 -34 -20 -1 -23 -5 -19 -34 3 -29 1 -33 -15 -29
-10 3 -14 8 -9 11 5 3 8 15 6 26 -2 11 -5 32 -6 48 -1 15 -6 27 -11 27 -10 0
-3 232 7 249 4 6 4 11 -1 11 -4 0 -2 4 6 9 12 8 13 14 3 35 -9 20 -9 26 1 26
8 0 8 3 -2 9 -10 6 -10 10 -1 16 9 6 9 10 -1 16 -12 8 -11 11 1 19 11 7 11 10
2 10 -7 0 -10 4 -7 10 11 18 24 91 27 153 1 20 6 37 11 37 5 0 4 7 -4 16 -10
12 -10 17 0 23 6 4 11 12 10 17 -4 22 2 34 18 34 9 0 13 3 10 6 -13 13 35 42
86 54 70 16 107 32 107 47 0 6 20 15 45 19 25 3 43 9 41 13 -2 3 18 6 44 7 30
0 47 -3 43 -9 -3 -6 -1 -7 6 -3 6 4 19 2 28 -6 14 -11 15 -10 9 9 -6 18 -4 21
13 18 12 -2 21 0 21 6 0 5 -4 9 -10 9 -5 0 -8 14 -6 30 3 24 0 30 -15 30 -21
0 -25 -15 -6 -24 6 -3 1 -3 -12 0 -14 4 -21 2 -17 -4 3 -5 -1 -12 -9 -16 -8
-3 -15 -1 -15 4 0 13 -27 13 -33 0 -3 -6 -4 -5 -3 2 1 7 13 15 27 19 19 6 20
7 5 8 -11 1 -27 -6 -37 -15 -24 -22 -120 -30 -134 -11 -6 9 -35 17 -70 21 -33
3 -78 7 -100 11 -33 4 -62 -4 -163 -45z m-16 -106 c-3 -9 -6 -22 -6 -30 0 -8
-5 -14 -11 -14 -5 0 -8 4 -5 9 4 5 1 11 -6 13 -9 3 -8 9 2 21 19 21 34 22 26
1z m-30 -70 c-3 -9 -6 -20 -6 -25 0 -5 -7 -9 -15 -9 -18 0 -19 16 -2 35 16 19
31 19 23 -1z m-3 -54 c8 0 8 -3 -1 -9 -7 -4 -14 -17 -15 -29 0 -11 -5 -18 -10
-15 -5 3 -8 -5 -7 -18 1 -13 1 -26 1 -29 -1 -3 -4 -27 -7 -55 -3 -27 -12 -57
-21 -65 -14 -14 -15 -11 -9 25 3 22 9 51 13 64 4 16 2 22 -4 18 -7 -5 -8 5 -2
31 4 20 11 50 14 65 4 21 10 27 21 23 9 -3 21 -6 27 -6z m-46 -252 c-2 -18 0
-41 5 -52 7 -13 7 -16 -1 -12 -6 4 -11 3 -11 -3 0 -5 4 -12 9 -15 4 -3 11 -36
15 -73 3 -37 9 -79 13 -92 l6 -25 -22 21 c-18 17 -22 30 -20 69 1 27 -2 58 -8
69 -6 11 -13 42 -17 69 -5 40 -3 51 11 62 25 19 26 18 20 -18z m-426 -225 c-8
-15 -10 -15 -11 -2 0 17 10 32 18 25 2 -3 -1 -13 -7 -23z m926 -19 c-3 -3 -12
-4 -19 -1 -8 3 -5 6 6 6 11 1 17 -2 13 -5z m13 -163 c0 -26 -5 -41 -16 -45
-27 -10 -32 -7 -39 26 -6 24 -3 35 11 45 32 23 44 16 44 -26z m404 30 c3 -5
-2 -15 -12 -22 -15 -12 -16 -12 -5 2 7 9 10 19 6 22 -3 4 -4 7 0 7 3 0 8 -4
11 -9z m-1304 -11 c0 -5 -4 -10 -10 -10 -5 0 -10 5 -10 10 0 6 5 10 10 10 6 0
10 -4 10 -10z m750 -80 c0 -5 -2 -10 -4 -10 -3 0 -8 5 -11 10 -3 6 -1 10 4 10
6 0 11 -4 11 -10z m7 -62 c-3 -8 -6 -5 -6 6 -1 11 2 17 5 13 3 -3 4 -12 1 -19z
m33 -28 c0 -5 -4 -10 -10 -10 -5 0 -10 5 -10 10 0 6 5 10 10 10 6 0 10 -4 10
-10z m101 -25 c24 1 29 0 12 -2 -18 -2 -33 -8 -33 -13 0 -11 -58 8 -66 21 -3
5 5 5 18 0 13 -5 44 -8 69 -6z m-58 -102 c-7 -2 -19 -2 -25 0 -7 3 -2 5 12 5
14 0 19 -2 13 -5z"/>
<path d="M2701 3824 c0 -11 3 -14 6 -6 3 7 2 16 -1 19 -3 4 -6 -2 -5 -13z"/>
<path d="M3457 3625 c-4 -8 -3 -16 1 -19 4 -3 9 4 9 15 2 23 -3 25 -10 4z"/>
<path d="M2824 3615 c4 -24 16 -30 16 -7 0 12 -4 22 -9 22 -5 0 -8 -7 -7 -15z"/>
<path d="M3380 3615 c-11 -13 -10 -14 4 -9 9 3 16 10 16 15 0 13 -6 11 -20 -6z"/>
<path d="M3337 3603 c-10 -9 -8 -43 2 -43 5 0 9 11 9 25 0 27 -1 28 -11 18z"/>
<path d="M3568 3583 c7 -3 16 -2 19 1 4 3 -2 6 -13 5 -11 0 -14 -3 -6 -6z"/>
<path d="M3525 3570 c-3 -6 1 -7 9 -4 18 7 21 14 7 14 -6 0 -13 -4 -16 -10z"/>
<path d="M3105 3520 c3 -5 8 -10 11 -10 2 0 4 5 4 10 0 6 -5 10 -11 10 -5 0
-7 -4 -4 -10z"/>
<path d="M2991 3510 c-1 -21 16 -46 26 -37 4 5 3 11 -3 15 -6 4 -14 14 -17 22
-5 13 -5 13 -6 0z"/>
<path d="M3030 3470 c0 -5 5 -10 11 -10 5 0 7 5 4 10 -3 6 -8 10 -11 10 -2 0
-4 -4 -4 -10z"/>
<path d="M3445 3440 c-3 -5 -1 -10 4 -10 6 0 11 5 11 10 0 6 -2 10 -4 10 -3 0
-8 -4 -11 -10z"/>
<path d="M3389 3393 c-13 -16 -12 -17 4 -4 16 13 21 21 13 21 -2 0 -10 -8 -17
-17z"/>
<path d="M3435 3352 c3 -3 0 -11 -7 -19 -8 -11 -7 -12 5 -7 21 7 29 31 11 31
-8 0 -12 -3 -9 -5z"/>
<path d="M3052 3170 c0 -19 2 -27 5 -17 2 9 2 25 0 35 -3 9 -5 1 -5 -18z"/>
<path d="M3031 3144 c0 -11 3 -14 6 -6 3 7 2 16 -1 19 -3 4 -6 -2 -5 -13z"/>
<path d="M2488 3143 c7 -3 16 -2 19 1 4 3 -2 6 -13 5 -11 0 -14 -3 -6 -6z"/>
<path d="M2780 3139 c0 -5 5 -7 10 -4 6 3 10 8 10 11 0 2 -4 4 -10 4 -5 0 -10
-5 -10 -11z"/>
<path d="M2831 3130 c-1 -20 -3 -22 -11 -10 -11 17 -12 3 -2 -21 6 -13 11 -11
30 13 13 15 19 28 13 28 -6 0 -11 -6 -12 -12 0 -7 -4 -4 -9 7 -8 18 -9 18 -9
-5z"/>
<path d="M3061 2954 c0 -11 3 -14 6 -6 3 7 2 16 -1 19 -3 4 -6 -2 -5 -13z"/>
<path d="M2227 2793 c-12 -12 -8 -45 6 -40 6 2 11 10 10 16 -2 6 4 11 13 11 8
0 12 5 9 10 -7 11 -28 13 -38 3z"/>
<path d="M3091 2754 c0 -11 3 -14 6 -6 3 7 2 16 -1 19 -3 4 -6 -2 -5 -13z"/>
<path d="M3250 2674 c0 -8 5 -12 10 -9 6 3 10 10 10 16 0 5 -4 9 -10 9 -5 0
-10 -7 -10 -16z"/>
<path d="M3196 2618 c3 -5 10 -6 15 -3 13 9 11 12 -6 12 -8 0 -12 -4 -9 -9z"/>
<path d="M3206 2591 c-4 -5 1 -8 9 -7 21 3 31 16 12 16 -9 0 -18 -4 -21 -9z"/>
<path d="M2865 2574 c7 -8 16 -14 18 -14 3 0 7 6 10 14 4 9 -2 14 -18 14 -20
0 -22 -3 -10 -14z"/>
<path d="M2707 2573 c-4 -3 -7 -11 -7 -17 0 -6 5 -5 12 2 6 6 9 14 7 17 -3 3
-9 2 -12 -2z"/>
<path d="M2918 2573 c6 -2 18 -2 25 0 6 3 1 5 -13 5 -14 0 -19 -2 -12 -5z"/>
<path d="M2859 2539 c-10 -6 -7 -9 14 -9 29 0 35 5 14 13 -8 3 -20 1 -28 -4z"/>
<path d="M3000 2515 c-7 -9 -19 -14 -25 -11 -7 2 -12 -3 -11 -12 0 -10 -6 -16
-16 -16 -14 1 -15 -2 -5 -18 10 -15 9 -21 -3 -29 -11 -7 -9 -9 12 -6 15 1 31
6 35 11 4 4 3 7 -2 6 -24 -5 -27 1 -9 15 23 17 38 19 28 3 -4 -7 -3 -8 4 -4 9
5 9 13 2 26 -12 22 0 33 27 23 17 -6 17 -6 1 10 -20 21 -22 21 -38 2z"/>
<path d="M2490 2499 c0 -5 5 -7 10 -4 6 3 10 8 10 11 0 2 -4 4 -10 4 -5 0 -10
-5 -10 -11z"/>
<path d="M3933 2408 c-9 -18 -16 -39 -15 -45 2 -7 -6 -13 -18 -13 -11 0 -23
-7 -26 -15 -9 -21 -24 -19 -24 4 0 27 -17 35 -23 11 -3 -11 -1 -18 4 -14 5 3
9 0 9 -5 0 -6 -3 -11 -8 -11 -4 0 -13 -15 -21 -32 -8 -18 -17 -35 -21 -38 -4
-3 -10 -17 -13 -31 -6 -23 -3 -28 20 -34 28 -7 53 13 53 43 0 7 4 10 10 7 10
-6 92 150 83 158 -2 3 0 15 7 26 6 12 8 21 6 21 -3 0 -13 -15 -23 -32z m-60
-105 c-7 -2 -21 -2 -30 0 -10 3 -4 5 12 5 17 0 24 -2 18 -5z m-43 -103 c0 -5
-7 -10 -16 -10 -8 0 -12 5 -9 10 3 6 10 10 16 10 5 0 9 -4 9 -10z"/>
<path d="M3881 2403 c0 -7 -4 -12 -8 -12 -28 5 -36 -2 -17 -15 22 -17 38 -6
31 20 -3 11 -5 13 -6 7z"/>
<path d="M2745 2380 c-3 -5 -1 -10 4 -10 6 0 11 5 11 10 0 6 -2 10 -4 10 -3 0
-8 -4 -11 -10z"/>
<path d="M2832 2370 c-6 -10 -25 -26 -42 -36 -32 -19 -42 -41 -13 -30 14 6 14
3 -3 -15 -10 -11 -17 -24 -16 -28 2 -3 9 -15 14 -25 10 -18 11 -18 20 -2 5 9
15 13 21 10 7 -4 9 -4 5 1 -4 4 -3 14 3 22 9 10 7 13 -9 13 -15 0 -20 6 -19
20 1 11 7 20 14 20 7 0 18 10 24 23 7 12 16 25 22 28 5 4 5 9 0 12 -5 3 -14
-3 -21 -13z m-37 -100 c3 -5 2 -10 -4 -10 -5 0 -13 5 -16 10 -3 6 -2 10 4 10
5 0 13 -4 16 -10z"/>
<path d="M3710 2371 c0 -5 11 -8 24 -7 13 0 22 4 19 9 -6 10 -43 9 -43 -2z"/>
<path d="M2830 2298 c0 -14 18 -17 28 -5 8 10 6 13 -9 13 -10 0 -19 -4 -19 -8z"/>
<path d="M3130 2139 c0 -5 5 -9 10 -9 6 0 10 -4 10 -10 0 -5 -10 -8 -22 -6
-13 3 -27 5 -33 5 -5 1 -3 6 5 11 11 7 11 10 2 10 -25 0 -54 -21 -48 -36 3 -9
-1 -14 -11 -14 -9 0 -13 -3 -9 -7 4 -4 -7 -14 -25 -23 -17 -8 -38 -28 -47 -45
-10 -16 -23 -35 -31 -41 -8 -6 -16 -29 -17 -50 -1 -22 -5 -52 -8 -69 -2 -16 0
-35 6 -42 6 -8 8 -16 5 -19 -6 -6 21 -85 33 -94 8 -8 40 -58 40 -65 0 -4 -4
-4 -9 -1 -14 9 -31 -40 -18 -53 6 -6 7 -11 3 -11 -5 0 -3 -7 4 -15 7 -8 17
-12 24 -8 6 4 4 -2 -4 -12 -8 -10 -10 -16 -3 -12 6 4 14 1 16 -5 3 -7 6 -4 6
6 1 18 2 18 14 3 14 -19 44 -17 58 4 7 11 9 11 9 -3 0 -18 11 -23 23 -11 10 9
77 11 71 1 -3 -4 -12 -8 -20 -8 -8 0 -14 -5 -14 -10 0 -6 -12 -9 -27 -8 -19 2
-28 -2 -31 -14 -3 -17 -9 -17 181 -9 38 1 38 38 0 43 -14 2 -28 9 -31 16 -3
11 0 12 16 3 16 -8 24 -8 35 4 8 8 18 11 21 7 11 -10 56 -10 56 0 0 5 10 8 23
7 12 -2 33 1 46 5 21 7 22 10 7 18 -9 5 -13 14 -10 20 4 7 2 8 -4 4 -8 -5 -10
-1 -6 9 5 12 10 13 17 6 6 -6 16 -11 21 -11 6 0 5 5 -1 11 -6 6 -9 18 -6 27 5
11 3 13 -7 7 -9 -6 -11 -4 -5 4 4 7 16 11 26 8 17 -5 18 -3 3 24 -8 16 -10 29
-5 29 6 0 15 19 22 43 6 23 16 48 21 55 7 8 7 12 -2 12 -8 0 -10 7 -5 18 12
31 13 67 1 74 -8 6 -8 8 1 8 19 0 2 43 -34 80 -18 19 -33 38 -33 42 0 4 -9 8
-19 8 -11 0 -23 5 -26 10 -3 6 -17 10 -30 10 -13 0 -27 5 -30 10 -8 12 -52 13
-59 1 -7 -10 -46 -3 -46 9 0 4 -6 8 -12 7 -36 -1 -48 5 -48 22 0 10 -9 21 -20
24 -11 3 -20 1 -20 -4z m10 -269 c0 -12 -31 -21 -51 -15 -26 9 -24 23 4 27 26
5 47 -1 47 -12z m-126 -146 c8 -21 -12 -17 -24 6 -8 16 -8 18 4 14 8 -3 17
-12 20 -20z m55 -33 c0 -9 -3 -11 -5 -4 -3 7 -12 9 -20 6 -10 -4 -12 0 -8 10
7 20 34 10 33 -12z m365 -120 c3 -5 0 -11 -8 -14 -8 -3 -17 1 -20 9 -6 15 19
20 28 5z"/>
<path d="M3284 2125 c-18 -14 -18 -14 4 -8 12 3 22 9 22 14 0 12 -3 11 -26 -6z"/>
<path d="M3330 2120 c-12 -7 -12 -12 -3 -21 15 -15 26 -7 21 15 -2 11 -7 13
-18 6z"/>
<path d="M3712 2009 c-29 -5 -62 -14 -73 -19 -17 -10 -18 -13 -5 -25 8 -8 22
-15 30 -15 9 0 16 -4 16 -9 0 -5 9 -13 21 -16 24 -8 48 18 49 51 0 11 5 25 12
32 7 7 10 11 8 11 -3 -1 -29 -5 -58 -10z"/>
<path d="M3310 1489 c0 -5 5 -7 10 -4 6 3 10 8 10 11 0 2 -4 4 -10 4 -5 0 -10
-5 -10 -11z"/>
<path d="M1013 1010 c6 -47 22 -70 48 -70 15 0 16 5 9 30 -5 17 -6 30 -4 30 3
0 -6 11 -20 25 -34 34 -40 32 -33 -15z"/>
<path d="M1203 913 c4 -3 1 -13 -6 -21 -6 -9 -7 -13 -1 -10 5 4 15 -6 21 -22
9 -23 8 -32 -3 -41 -11 -9 -14 -8 -14 5 0 9 -7 33 -16 54 -14 33 -17 35 -24
17 -4 -11 -5 -24 -3 -28 3 -5 -4 -3 -15 4 -27 17 -37 7 -22 -21 7 -12 8 -20 2
-16 -5 3 -21 -3 -34 -13 -16 -13 -29 -16 -38 -11 -10 6 -19 1 -31 -18 -15 -25
-15 -30 -1 -66 15 -37 14 -40 -6 -57 -12 -9 -22 -21 -22 -27 0 -19 36 -41 58
-35 16 4 22 1 22 -12 0 -14 5 -16 28 -10 15 4 68 9 117 12 50 3 94 9 100 14 5
5 17 9 27 9 27 0 43 39 43 102 0 47 -3 58 -16 58 -12 0 -18 12 -22 42 -7 49
-27 68 -67 62 -22 -4 -30 0 -35 16 -4 12 -15 20 -27 20 -12 0 -18 -3 -15 -7z
m70 -160 c-9 -22 -28 -15 -29 11 -2 21 1 23 16 14 10 -7 16 -18 13 -25z m-63
-60 c-2 -40 -120 -87 -120 -47 0 8 5 12 10 9 6 -3 10 -1 10 6 0 7 3 10 6 6 3
-3 15 3 27 14 20 18 67 27 67 12z m89 -29 c2 -2 -20 -3 -50 -2 -36 0 -47 3
-34 8 18 7 74 3 84 -6z m-259 -34 c0 -5 -7 -7 -15 -4 -8 4 -15 8 -15 10 0 2 7
4 15 4 8 0 15 -4 15 -10z"/>
<path d="M760 871 c0 -11 6 -22 13 -24 10 -4 10 -6 0 -6 -18 -1 -16 -21 2 -35
9 -6 22 -29 30 -51 10 -28 14 -33 15 -17 0 12 4 22 9 22 9 0 -2 -56 -12 -67
-2 -2 -12 18 -22 44 -26 71 -36 80 -56 54 -9 -11 -19 -17 -23 -14 -12 12 -6
-33 9 -61 18 -34 19 -58 3 -74 -6 -6 -9 -14 -6 -17 3 -3 12 1 21 9 8 8 17 12
21 9 11 -11 6 16 -6 36 -6 10 -8 27 -4 37 7 17 9 16 23 -11 9 -16 23 -35 31
-41 12 -9 4 -15 -42 -34 -91 -38 -71 -73 42 -72 28 0 52 -3 52 -7 0 -6 27 -7
73 -2 4 1 19 13 32 27 23 25 23 28 9 55 -14 29 -34 39 -34 18 0 -20 -25 15
-50 71 -26 58 -41 80 -77 115 -13 12 -23 27 -23 33 0 5 -7 12 -15 16 -10 3
-15 -1 -15 -13z"/>
<path d="M547 694 c-14 -14 -7 -58 19 -111 22 -45 30 -52 47 -47 14 4 25 0 36
-14 22 -28 148 -44 137 -17 -3 9 -6 19 -6 21 0 2 -11 4 -24 4 -72 0 -84 9
-113 84 -15 39 -27 72 -28 73 -4 8 -61 13 -68 7z m63 -137 c0 -5 -7 -4 -15 3
-8 7 -15 20 -15 29 1 13 3 13 15 -3 8 -11 15 -24 15 -29z"/>
<path d="M3793 608 c-24 -32 -38 -58 -33 -58 5 0 6 -7 3 -17 -4 -11 -3 -14 5
-9 7 4 12 13 12 21 0 7 6 20 13 27 24 25 48 69 45 82 -2 7 -22 -14 -45 -46z"/>
<path d="M4042 553 c-21 -8 -79 -134 -84 -183 -3 -25 -13 -71 -22 -102 -15
-49 -21 -58 -41 -58 -13 0 -32 11 -43 25 -11 14 -25 25 -32 25 -6 0 -8 4 -5
10 3 6 -1 7 -9 4 -12 -5 -16 0 -16 17 0 23 -1 22 -16 -6 -9 -16 -16 -40 -16
-53 1 -15 -4 -22 -16 -22 -15 -1 -15 -2 2 -12 11 -6 55 -12 99 -13 43 0 81 -5
85 -11 10 -13 59 -34 83 -34 11 0 22 7 26 16 4 12 8 13 14 3 6 -11 15 -10 43
4 35 16 52 43 20 30 -10 -4 -17 2 -21 16 -3 14 -11 20 -19 17 -12 -4 -11 0 1
24 20 39 19 70 -2 70 -9 0 -25 8 -35 17 -17 15 -20 15 -28 3 -16 -25 -12 45 4
82 15 35 46 132 43 134 -1 1 -8 -1 -15 -3z m-82 -364 c0 -11 -27 -12 -34 0 -3
4 -3 11 0 14 8 8 34 -3 34 -14z"/>
<path d="M3521 507 c-1 -11 -5 -15 -13 -11 -8 5 -9 2 -5 -10 10 -24 -20 -32
-43 -11 -17 16 -19 16 -29 -4 -6 -11 -11 -38 -11 -60 0 -33 4 -41 18 -41 11 0
26 8 34 18 24 27 60 111 55 124 -3 8 -6 6 -6 -5z"/>
<path d="M3735 475 c-4 -11 -16 -38 -26 -60 -23 -48 -34 -99 -19 -90 5 3 10
14 10 23 0 9 12 41 25 71 14 30 24 59 21 65 -2 6 -7 2 -11 -9z"/>
<path d="M3594 398 c-9 -18 -20 -44 -25 -58 -5 -16 -8 -19 -8 -7 -1 13 -10 17
-37 17 -38 0 -38 -4 3 -47 14 -15 63 -17 63 -3 0 6 5 10 10 10 6 0 8 -11 6
-24 -3 -14 2 -30 10 -37 17 -14 16 -15 38 40 13 33 14 46 5 57 -7 8 -9 17 -6
21 8 7 -24 63 -35 63 -4 0 -15 -15 -24 -32z"/>
<path d="M3717 358 c-9 -20 -17 -40 -17 -45 0 -5 -9 -15 -20 -23 -14 -10 -20
-26 -20 -53 0 -51 16 -39 35 25 8 28 22 62 31 75 8 13 14 32 12 41 -2 12 -9 5
-21 -20z"/>
<path d="M3700 210 c0 -5 5 -10 10 -10 6 0 10 5 10 10 0 6 -4 10 -10 10 -5 0
-10 -4 -10 -10z"/>
</g>
</svg>
